{
	"asset":{
		"generator":"Khronos glTF Blender I/O v5.1.0",
		"version":"2.0"
	},
	"extensionsUsed":[
		"KHR_materials_clearcoat",
		"KHR_materials_transmission",
		"KHR_lights_punctual"
	],
	"extensionsRequired":[
		"KHR_lights_punctual"
	],
	"extensions":{
		"KHR_lights_punctual":{
			"lights":[
				{
					"color":[
						1,
						1,
						1
					],
					"intensity":79.57747154594767,
					"type":"point",
					"name":"Light"
				}
			]
		}
	},
	"scene":0,
	"scenes":[
		{
			"name":"Scene",
			"nodes":[
				5,
				13,
				14,
				15
			]
		}
	],
	"nodes":[
		{
			"mesh":0,
			"name":"Object_4",
			"rotation":[
				-0.01740739867091179,
				0,
				0.017407409846782684,
				0.9996969103813171
			],
			"scale":[
				1.6828261613845825,
				1.682826280593872,
				1.6828259229660034
			],
			"translation":[
				-0.02323491871356964,
				-4.208561420440674,
				0.02757120132446289
			]
		},
		{
			"mesh":1,
			"name":"Object_6",
			"rotation":[
				-0.01740739867091179,
				0,
				0.017407409846782684,
				0.9996969103813171
			],
			"scale":[
				1.6828261613845825,
				1.682826280593872,
				1.6828259229660034
			],
			"translation":[
				-0.02323491871356964,
				-4.208561420440674,
				0.02757120132446289
			]
		},
		{
			"children":[
				0,
				1
			],
			"name":"Cube_0",
			"rotation":[
				0,
				0.3826834559440613,
				0,
				0.9238795638084412
			]
		},
		{
			"children":[
				2
			],
			"name":"GLTF_SceneRootNode",
			"rotation":[
				0.70710688829422,
				0,
				0,
				0.7071066498756409
			]
		},
		{
			"children":[
				3
			],
			"name":"root"
		},
		{
			"children":[
				4
			],
			"name":"Sketchfab_model",
			"rotation":[
				-0.09754165261983871,
				0.09754166752099991,
				0.7003469467163086,
				0.7003467082977295
			],
			"translation":[
				-0.20756608247756958,
				1.0077296495437622,
				3.38704776763916
			]
		},
		{
			"mesh":2,
			"name":"Sphere.020_Glass1_0"
		},
		{
			"mesh":3,
			"name":"Sphere.020_Glass2_0"
		},
		{
			"mesh":4,
			"name":"Sphere.020_Light_0"
		},
		{
			"mesh":5,
			"name":"Sphere.020_Pistol_0"
		},
		{
			"children":[
				6,
				7,
				8,
				9
			],
			"name":"Sphere.020",
			"rotation":[
				-0.7976799011230469,
				0.0031746714375913143,
				-0.018886622041463852,
				0.6027768850326538
			],
			"scale":[
				99.99999237060547,
				100,
				99.99996948242188
			],
			"translation":[
				-8.2982177734375,
				-1.5423895120620728,
				-22.032577514648438
			]
		},
		{
			"children":[
				10
			],
			"name":"RootNode"
		},
		{
			"children":[
				11
			],
			"name":"66194cad4e5c41d3b751e10209337904.fbx",
			"rotation":[
				0.70710688829422,
				0,
				0,
				0.7071066498756409
			],
			"translation":[
				-0.00012111663818359375,
				0,
				0
			]
		},
		{
			"children":[
				12
			],
			"name":"Sketchfab_model.001",
			"rotation":[
				-0.70710688829422,
				0,
				0,
				0.7071066498756409
			],
			"scale":[
				0.018126554787158966,
				0.018126554787158966,
				0.018126554787158966
			],
			"translation":[
				0.11291235685348511,
				0,
				0
			]
		},
		{
			"extensions":{
				"KHR_lights_punctual":{
					"light":0
				}
			},
			"name":"Light",
			"rotation":[
				-0.28416627645492554,
				0.7269423007965088,
				0.34203392267227173,
				0.5232754945755005
			],
			"translation":[
				4.076245307922363,
				5.903861999511719,
				-1.0054539442062378
			]
		},
		{
			"camera":0,
			"name":"Camera",
			"rotation":[
				-0.20997299253940582,
				0.3857799470424652,
				0.09062844514846802,
				0.8937962055206299
			],
			"translation":[
				7.358891487121582,
				4.958309173583984,
				6.925790786743164
			]
		}
	],
	"cameras":[
		{
			"name":"Camera",
			"perspective":{
				"aspectRatio":1.7777777777777777,
				"yfov":0.39959652046304894,
				"zfar":100,
				"znear":0.10000000149011612
			},
			"type":"perspective"
		}
	],
	"materials":[
		{
			"doubleSided":true,
			"name":"Cactus",
			"pbrMetallicRoughness":{
				"baseColorTexture":{
					"index":0
				},
				"metallicFactor":0.3227269947528839
			}
		},
		{
			"doubleSided":true,
			"name":"Pricks",
			"pbrMetallicRoughness":{
				"baseColorTexture":{
					"index":1
				},
				"metallicFactor":0,
				"roughnessFactor":0.604544997215271
			}
		},
		{
			"alphaMode":"BLEND",
			"doubleSided":true,
			"extensions":{
				"KHR_materials_clearcoat":{
					"clearcoatFactor":0.25,
					"clearcoatRoughnessFactor":0.03999999910593033
				},
				"KHR_materials_transmission":{
					"transmissionFactor":1
				}
			},
			"name":"Glass1",
			"normalTexture":{
				"index":2
			},
			"pbrMetallicRoughness":{
				"baseColorFactor":[
					1,
					1,
					1,
					0.25
				],
				"baseColorTexture":{
					"index":3
				},
				"metallicFactor":0,
				"metallicRoughnessTexture":{
					"index":4
				}
			}
		},
		{
			"alphaMode":"BLEND",
			"doubleSided":true,
			"extensions":{
				"KHR_materials_clearcoat":{
					"clearcoatFactor":0.25,
					"clearcoatRoughnessFactor":0.03999999910593033
				}
			},
			"name":"Glass2",
			"normalTexture":{
				"index":5
			},
			"pbrMetallicRoughness":{
				"baseColorFactor":[
					1,
					1,
					1,
					0.21988636255264282
				],
				"baseColorTexture":{
					"index":6
				},
				"metallicRoughnessTexture":{
					"index":7
				}
			}
		},
		{
			"alphaMode":"BLEND",
			"doubleSided":true,
			"emissiveFactor":[
				1,
				1,
				1
			],
			"emissiveTexture":{
				"index":8
			},
			"name":"Light",
			"pbrMetallicRoughness":{
				"baseColorTexture":{
					"index":9
				},
				"roughnessFactor":0
			}
		},
		{
			"alphaMode":"BLEND",
			"doubleSided":true,
			"emissiveFactor":[
				1,
				1,
				1
			],
			"emissiveTexture":{
				"index":10
			},
			"extensions":{
				"KHR_materials_transmission":{
					"transmissionFactor":1,
					"transmissionTexture":{
						"index":11
					}
				}
			},
			"name":"Pistol",
			"normalTexture":{
				"index":12
			},
			"occlusionTexture":{
				"index":13
			},
			"pbrMetallicRoughness":{
				"baseColorTexture":{
					"index":14
				},
				"metallicRoughnessTexture":{
					"index":13
				}
			}
		}
	],
	"meshes":[
		{
			"name":"Object_0",
			"primitives":[
				{
					"attributes":{
						"POSITION":0,
						"NORMAL":1,
						"TEXCOORD_0":2,
						"TANGENT":3
					},
					"indices":4,
					"material":0
				}
			]
		},
		{
			"name":"Object_2",
			"primitives":[
				{
					"attributes":{
						"POSITION":5,
						"NORMAL":6,
						"TEXCOORD_0":7,
						"TANGENT":8
					},
					"indices":9,
					"material":1
				}
			]
		},
		{
			"name":"Sphere.020_Glass1_0",
			"primitives":[
				{
					"attributes":{
						"POSITION":10,
						"NORMAL":11,
						"TEXCOORD_0":12,
						"TANGENT":13
					},
					"indices":14,
					"material":2
				}
			]
		},
		{
			"name":"Sphere.020_Glass2_0",
			"primitives":[
				{
					"attributes":{
						"POSITION":15,
						"NORMAL":16,
						"TEXCOORD_0":17,
						"TANGENT":18
					},
					"indices":19,
					"material":3
				}
			]
		},
		{
			"name":"Sphere.020_Light_0",
			"primitives":[
				{
					"attributes":{
						"POSITION":20,
						"NORMAL":21,
						"TEXCOORD_0":22,
						"TANGENT":23
					},
					"indices":24,
					"material":4
				}
			]
		},
		{
			"name":"Sphere.020_Pistol_0",
			"primitives":[
				{
					"attributes":{
						"POSITION":25,
						"NORMAL":26,
						"TEXCOORD_0":27,
						"TANGENT":28
					},
					"indices":29,
					"material":5
				}
			]
		}
	],
	"textures":[
		{
			"sampler":0,
			"source":0
		},
		{
			"sampler":0,
			"source":0
		},
		{
			"sampler":0,
			"source":1
		},
		{
			"sampler":0,
			"source":2
		},
		{
			"sampler":0,
			"source":3
		},
		{
			"sampler":0,
			"source":1
		},
		{
			"sampler":0,
			"source":2
		},
		{
			"sampler":0,
			"source":3
		},
		{
			"sampler":0,
			"source":4
		},
		{
			"sampler":0,
			"source":5
		},
		{
			"sampler":0,
			"source":4
		},
		{
			"sampler":0,
			"source":6
		},
		{
			"sampler":0,
			"source":1
		},
		{
			"sampler":0,
			"source":7
		},
		{
			"sampler":0,
			"source":5
		}
	],
	"images":[
		{
			"mimeType":"image/png",
			"name":"Image_0",
			"uri":"../../assets-finished/cactus-gun/textures/Image_0.png"
		},
		{
			"mimeType":"image/png",
			"name":"Image_3",
			"uri":"../../assets-finished/cactus-gun/textures/Image_3.png"
		},
		{
			"mimeType":"image/png",
			"name":"Image_5",
			"uri":"../../assets-finished/cactus-gun/textures/Image_5.png"
		},
		{
			"mimeType":"image/png",
			"name":"Image_6",
			"uri":"../../assets-finished/cactus-gun/textures/Image_6.png"
		},
		{
			"mimeType":"image/png",
			"name":"Image_2",
			"uri":"../../assets-finished/cactus-gun/textures/Image_2.png"
		},
		{
			"mimeType":"image/png",
			"name":"Image_0.001",
			"uri":"../../assets-finished/cactus-gun/textures/Image_0.001.png"
		},
		{
			"mimeType":"image/png",
			"name":"Image_4",
			"uri":"../../assets-finished/cactus-gun/textures/Image_4.png"
		},
		{
			"mimeType":"image/png",
			"name":"Image_1",
			"uri":"../../assets-finished/cactus-gun/textures/Image_1.png"
		}
	],
	"accessors":[
		{
			"bufferView":0,
			"componentType":5126,
			"count":546,
			"max":[
				0.5938528776168823,
				5.092907905578613,
				0.5891216993331909
			],
			"min":[
				-0.5938528776168823,
				1.5976008176803589,
				-0.5891216993331909
			],
			"type":"VEC3"
		},
		{
			"bufferView":1,
			"componentType":5126,
			"count":546,
			"type":"VEC3"
		},
		{
			"bufferView":2,
			"componentType":5126,
			"count":546,
			"type":"VEC2"
		},
		{
			"bufferView":3,
			"componentType":5126,
			"count":546,
			"type":"VEC4"
		},
		{
			"bufferView":4,
			"componentType":5123,
			"count":2724,
			"type":"SCALAR"
		},
		{
			"bufferView":5,
			"componentType":5126,
			"count":330,
			"max":[
				0.7071306109428406,
				5.187393665313721,
				0.6492894291877747
			],
			"min":[
				-0.7071306109428406,
				2.24322772026062,
				-0.6715431809425354
			],
			"type":"VEC3"
		},
		{
			"bufferView":6,
			"componentType":5126,
			"count":330,
			"type":"VEC3"
		},
		{
			"bufferView":7,
			"componentType":5126,
			"count":330,
			"type":"VEC2"
		},
		{
			"bufferView":8,
			"componentType":5126,
			"count":330,
			"type":"VEC4"
		},
		{
			"bufferView":9,
			"componentType":5123,
			"count":792,
			"type":"SCALAR"
		},
		{
			"bufferView":10,
			"componentType":5126,
			"count":200,
			"max":[
				0.49825575947761536,
				-0.3947676420211792,
				1.2524733543395996
			],
			"min":[
				0.13212838768959045,
				-0.8125603795051575,
				0.6684818267822266
			],
			"type":"VEC3"
		},
		{
			"bufferView":11,
			"componentType":5126,
			"count":200,
			"type":"VEC3"
		},
		{
			"bufferView":12,
			"componentType":5126,
			"count":200,
			"type":"VEC2"
		},
		{
			"bufferView":13,
			"componentType":5126,
			"count":200,
			"type":"VEC4"
		},
		{
			"bufferView":14,
			"componentType":5123,
			"count":864,
			"type":"SCALAR"
		},
		{
			"bufferView":15,
			"componentType":5126,
			"count":20,
			"max":[
				0.9832330942153931,
				0.26911094784736633,
				0.39997273683547974
			],
			"min":[
				0.8921380639076233,
				-0.14860518276691437,
				-0.011852086521685123
			],
			"type":"VEC3"
		},
		{
			"bufferView":16,
			"componentType":5126,
			"count":20,
			"type":"VEC3"
		},
		{
			"bufferView":17,
			"componentType":5126,
			"count":20,
			"type":"VEC2"
		},
		{
			"bufferView":18,
			"componentType":5126,
			"count":20,
			"type":"VEC4"
		},
		{
			"bufferView":19,
			"componentType":5123,
			"count":54,
			"type":"SCALAR"
		},
		{
			"bufferView":20,
			"componentType":5126,
			"count":12,
			"max":[
				0.3696989417076111,
				-0.469143807888031,
				1.041273832321167
			],
			"min":[
				0.25031808018684387,
				-0.7466529607772827,
				0.7052533626556396
			],
			"type":"VEC3"
		},
		{
			"bufferView":21,
			"componentType":5126,
			"count":12,
			"type":"VEC3"
		},
		{
			"bufferView":22,
			"componentType":5126,
			"count":12,
			"type":"VEC2"
		},
		{
			"bufferView":23,
			"componentType":5126,
			"count":12,
			"type":"VEC4"
		},
		{
			"bufferView":24,
			"componentType":5123,
			"count":18,
			"type":"SCALAR"
		},
		{
			"bufferView":25,
			"componentType":5126,
			"count":1800,
			"max":[
				0.9959130883216858,
				1.4019216299057007,
				1.235276460647583
			],
			"min":[
				-0.9299465417861938,
				-1.7944142818450928,
				-1.962038278579712
			],
			"type":"VEC3"
		},
		{
			"bufferView":26,
			"componentType":5126,
			"count":1800,
			"type":"VEC3"
		},
		{
			"bufferView":27,
			"componentType":5126,
			"count":1800,
			"type":"VEC2"
		},
		{
			"bufferView":28,
			"componentType":5126,
			"count":1800,
			"type":"VEC4"
		},
		{
			"bufferView":29,
			"componentType":5123,
			"count":8268,
			"type":"SCALAR"
		}
	],
	"bufferViews":[
		{
			"buffer":0,
			"byteLength":6552,
			"byteOffset":0,
			"target":34962
		},
		{
			"buffer":0,
			"byteLength":6552,
			"byteOffset":6552,
			"target":34962
		},
		{
			"buffer":0,
			"byteLength":4368,
			"byteOffset":13104,
			"target":34962
		},
		{
			"buffer":0,
			"byteLength":8736,
			"byteOffset":17472,
			"target":34962
		},
		{
			"buffer":0,
			"byteLength":5448,
			"byteOffset":26208,
			"target":34963
		},
		{
			"buffer":0,
			"byteLength":3960,
			"byteOffset":31656,
			"target":34962
		},
		{
			"buffer":0,
			"byteLength":3960,
			"byteOffset":35616,
			"target":34962
		},
		{
			"buffer":0,
			"byteLength":2640,
			"byteOffset":39576,
			"target":34962
		},
		{
			"buffer":0,
			"byteLength":5280,
			"byteOffset":42216,
			"target":34962
		},
		{
			"buffer":0,
			"byteLength":1584,
			"byteOffset":47496,
			"target":34963
		},
		{
			"buffer":0,
			"byteLength":2400,
			"byteOffset":49080,
			"target":34962
		},
		{
			"buffer":0,
			"byteLength":2400,
			"byteOffset":51480,
			"target":34962
		},
		{
			"buffer":0,
			"byteLength":1600,
			"byteOffset":53880,
			"target":34962
		},
		{
			"buffer":0,
			"byteLength":3200,
			"byteOffset":55480,
			"target":34962
		},
		{
			"buffer":0,
			"byteLength":1728,
			"byteOffset":58680,
			"target":34963
		},
		{
			"buffer":0,
			"byteLength":240,
			"byteOffset":60408,
			"target":34962
		},
		{
			"buffer":0,
			"byteLength":240,
			"byteOffset":60648,
			"target":34962
		},
		{
			"buffer":0,
			"byteLength":160,
			"byteOffset":60888,
			"target":34962
		},
		{
			"buffer":0,
			"byteLength":320,
			"byteOffset":61048,
			"target":34962
		},
		{
			"buffer":0,
			"byteLength":108,
			"byteOffset":61368,
			"target":34963
		},
		{
			"buffer":0,
			"byteLength":144,
			"byteOffset":61476,
			"target":34962
		},
		{
			"buffer":0,
			"byteLength":144,
			"byteOffset":61620,
			"target":34962
		},
		{
			"buffer":0,
			"byteLength":96,
			"byteOffset":61764,
			"target":34962
		},
		{
			"buffer":0,
			"byteLength":192,
			"byteOffset":61860,
			"target":34962
		},
		{
			"buffer":0,
			"byteLength":36,
			"byteOffset":62052,
			"target":34963
		},
		{
			"buffer":0,
			"byteLength":21600,
			"byteOffset":62088,
			"target":34962
		},
		{
			"buffer":0,
			"byteLength":21600,
			"byteOffset":83688,
			"target":34962
		},
		{
			"buffer":0,
			"byteLength":14400,
			"byteOffset":105288,
			"target":34962
		},
		{
			"buffer":0,
			"byteLength":28800,
			"byteOffset":119688,
			"target":34962
		},
		{
			"buffer":0,
			"byteLength":16536,
			"byteOffset":148488,
			"target":34963
		}
	],
	"samplers":[
		{
			"magFilter":9729,
			"minFilter":9987
		}
	],
	"buffers":[
		{
			"byteLength":165024,
			"uri":"cactus-gun-c1de33833dce07086258b9d73396e6dd.bin"
		}
	]
}
